<svg width="24" height="24" viewBox="0 0 24 24" fill="none" xmlns="http://www.w3.org/2000/svg">
<g id="layer">
<g id="vuesax/linear/layer">
<g id="layer_2">
<path id="Vector" d="M13.0095 2.92001L18.9095 5.54001C20.6095 6.29001 20.6095 7.53001 18.9095 8.28001L13.0095 10.9C12.3395 11.2 11.2395 11.2 10.5695 10.9L4.66953 8.28001C2.96953 7.53001 2.96953 6.29001 4.66953 5.54001L10.5695 2.92001C11.2395 2.62001 12.3395 2.62001 13.0095 2.92001Z" stroke="#6D7280" stroke-width="1.5" stroke-linecap="round" stroke-linejoin="round"/>
<path id="Vector_2" d="M3 11C3 11.84 3.63 12.81 4.4 13.15L11.19 16.17C11.71 16.4 12.3 16.4 12.81 16.17L19.6 13.15C20.37 12.81 21 11.84 21 11" stroke="#6D7280" stroke-width="1.5" stroke-linecap="round" stroke-linejoin="round"/>
<path id="Vector_3" d="M3 16C3 16.93 3.55 17.77 4.4 18.15L11.19 21.17C11.71 21.4 12.3 21.4 12.81 21.17L19.6 18.15C20.45 17.77 21 16.93 21 16" stroke="#6D7280" stroke-width="1.5" stroke-linecap="round" stroke-linejoin="round"/>
</g>
</g>
</g>
</svg>
